<svg xmlns="http://www.w3.org/2000/svg" width="257.015" height="77.096" viewBox="0 0 257.015 77.096"><g transform="translate(-457.603 -827.161)"><path d="M49.114-46.839v11.725H3.6V-46.839Zm-30.878,0H33.185v31.131a6.947,6.947,0,0,0,.427,2.639,2.966,2.966,0,0,0,1.312,1.517,4.6,4.6,0,0,0,2.244.49,24.079,24.079,0,0,0,2.449-.095q.869-.095,2.07-.284L42.793-.126a26.463,26.463,0,0,1-3.824.774,37.7,37.7,0,0,1-4.583.237Q26.8.885,22.519-3.287T18.236-15.676ZM62.577.674A16.75,16.75,0,0,1,55.824-.609,10.337,10.337,0,0,1,51.184-4.5a11.757,11.757,0,0,1-1.7-6.546,12.2,12.2,0,0,1,1.167-5.6,9.969,9.969,0,0,1,3.214-3.707,15.343,15.343,0,0,1,4.718-2.165,31.38,31.38,0,0,1,5.7-1q3.4-.311,5.47-.661a7.672,7.672,0,0,0,3.02-1.011,2.157,2.157,0,0,0,.946-1.879v-.13a3.709,3.709,0,0,0-1.374-3.085,5.807,5.807,0,0,0-3.707-1.089A6.83,6.83,0,0,0,64.6-30.278a4.8,4.8,0,0,0-1.944,3.007l-11.691-.415a13.838,13.838,0,0,1,2.683-6.494,14.506,14.506,0,0,1,5.962-4.511,22.9,22.9,0,0,1,9.138-1.646,26.145,26.145,0,0,1,7.025.894,17.779,17.779,0,0,1,5.6,2.592,11.958,11.958,0,0,1,3.694,4.161,11.8,11.8,0,0,1,1.309,5.625V0H74.45V-5.548h-.311A11.394,11.394,0,0,1,71.43-2.126a11,11,0,0,1-3.863,2.1A16.54,16.54,0,0,1,62.577.674Zm3.914-8.3a8.093,8.093,0,0,0,3.694-.83,6.786,6.786,0,0,0,2.631-2.294,5.963,5.963,0,0,0,.985-3.409v-3.785a7.648,7.648,0,0,1-1.309.518q-.765.233-1.672.441t-1.866.363q-.959.156-1.841.285a11.265,11.265,0,0,0-3.046.881,4.757,4.757,0,0,0-1.918,1.542,3.816,3.816,0,0,0-.661,2.242A3.5,3.5,0,0,0,62.9-8.658,5.91,5.91,0,0,0,66.491-7.621Zm50.67-9.566V-39.818h12.651V0h-12.08V-7.414h-.415a11.535,11.535,0,0,1-4.5,5.794,13.391,13.391,0,0,1-7.66,2.139A13.548,13.548,0,0,1,98-1.348a12.7,12.7,0,0,1-4.8-5.224,17.336,17.336,0,0,1-1.737-7.868V-39.818h12.676v22.89a7.434,7.434,0,0,0,1.711,5.107,5.871,5.871,0,0,0,4.588,1.866,6.9,6.9,0,0,0,3.409-.843,6.129,6.129,0,0,0,2.411-2.463A8.019,8.019,0,0,0,117.162-17.187Zm56.762,32.119H161.247V-6.455h-.259a12.451,12.451,0,0,1-2.281,3.448,11.015,11.015,0,0,1-3.694,2.592,12.776,12.776,0,0,1-5.224.985,14.668,14.668,0,0,1-8.01-2.281,15.792,15.792,0,0,1-5.755-6.844,26.5,26.5,0,0,1-2.152-11.328A26.2,26.2,0,0,1,136.1-31.445a15.559,15.559,0,0,1,5.846-6.714,14.838,14.838,0,0,1,7.79-2.178,12.253,12.253,0,0,1,5.366,1.076,11.208,11.208,0,0,1,3.681,2.761,13,13,0,0,1,2.2,3.5h.389v-6.818h12.547ZM161.533-19.909a16.305,16.305,0,0,0-.868-5.625,7.878,7.878,0,0,0-2.515-3.629,6.279,6.279,0,0,0-3.953-1.27,6.221,6.221,0,0,0-3.992,1.3,7.93,7.93,0,0,0-2.476,3.655,16.587,16.587,0,0,0-.843,5.574,16.584,16.584,0,0,0,.855,5.6,8.144,8.144,0,0,0,2.476,3.694A6.128,6.128,0,0,0,154.2-9.306a6.1,6.1,0,0,0,3.94-1.309,8.271,8.271,0,0,0,2.515-3.694A16.138,16.138,0,0,0,161.533-19.909Zm43.49,2.722V-39.818h12.651V0h-12.08V-7.414h-.415a11.535,11.535,0,0,1-4.5,5.794A13.391,13.391,0,0,1,193.02.518a13.548,13.548,0,0,1-7.155-1.866,12.7,12.7,0,0,1-4.8-5.224,17.337,17.337,0,0,1-1.737-7.868V-39.818h12.676v22.89a7.433,7.433,0,0,0,1.711,5.107,5.871,5.871,0,0,0,4.588,1.866,6.9,6.9,0,0,0,3.409-.843,6.129,6.129,0,0,0,2.411-2.463A8.019,8.019,0,0,0,205.022-17.187ZM241.72.752a22.115,22.115,0,0,1-10.771-2.476A16.833,16.833,0,0,1,224-8.8a23.2,23.2,0,0,1-2.424-10.953,22.847,22.847,0,0,1,2.437-10.8,17.7,17.7,0,0,1,6.87-7.207,20.406,20.406,0,0,1,10.447-2.579,21.992,21.992,0,0,1,7.777,1.322A16.716,16.716,0,0,1,255.2-35.1a17.862,17.862,0,0,1,3.992,6.39,24.641,24.641,0,0,1,1.426,8.7v3.163H226.01v-7.362h22.813a7.141,7.141,0,0,0-.959-3.6,6.632,6.632,0,0,0-2.553-2.476,7.57,7.57,0,0,0-3.72-.894,7.647,7.647,0,0,0-3.811.946,7.184,7.184,0,0,0-2.67,2.566A7.286,7.286,0,0,0,234.072-24v7.492a9.049,9.049,0,0,0,.959,4.264,6.9,6.9,0,0,0,2.722,2.839,8.3,8.3,0,0,0,4.2,1.011,9.47,9.47,0,0,0,3.059-.467,6.533,6.533,0,0,0,2.359-1.374,5.67,5.67,0,0,0,1.478-2.229l11.64.337a14.378,14.378,0,0,1-3.176,6.8A16.091,16.091,0,0,1,250.9-.843,24.479,24.479,0,0,1,241.72.752Z" transform="translate(454 874)" fill="#5e3af5"/><path d="M-131.543,0V-18.182h7.28a8.264,8.264,0,0,1,3.347.595A4.457,4.457,0,0,1-118.9-15.94a4.383,4.383,0,0,1,.675,2.419,3.931,3.931,0,0,1-.426,1.869,3.644,3.644,0,0,1-1.167,1.314,4.8,4.8,0,0,1-1.691.724v.178a4.1,4.1,0,0,1,1.949.586,4.171,4.171,0,0,1,1.478,1.514,4.5,4.5,0,0,1,.568,2.313,4.728,4.728,0,0,1-.715,2.579,4.863,4.863,0,0,1-2.108,1.789A8.031,8.031,0,0,1-123.775,0Zm3.844-3.143h3.134a3.624,3.624,0,0,0,2.344-.617,2.039,2.039,0,0,0,.737-1.647,2.443,2.443,0,0,0-.364-1.332,2.478,2.478,0,0,0-1.034-.906,3.587,3.587,0,0,0-1.594-.328H-127.7Zm0-7.431h2.85a3.374,3.374,0,0,0,1.407-.28,2.339,2.339,0,0,0,.977-.795,2.1,2.1,0,0,0,.36-1.234,2,2,0,0,0-.7-1.589,2.925,2.925,0,0,0-1.975-.6H-127.7Zm26.558-7.608H-97.3V-6.374a6.36,6.36,0,0,1-.945,3.48,6.354,6.354,0,0,1-2.641,2.322,8.884,8.884,0,0,1-3.951.83,8.9,8.9,0,0,1-3.96-.83,6.324,6.324,0,0,1-2.637-2.322,6.383,6.383,0,0,1-.941-3.48V-18.182h3.844V-6.7a3.683,3.683,0,0,0,.457,1.847,3.271,3.271,0,0,0,1.292,1.27,3.952,3.952,0,0,0,1.944.462,3.946,3.946,0,0,0,1.949-.462,3.279,3.279,0,0,0,1.287-1.27,3.683,3.683,0,0,0,.457-1.847Zm24.862,0V0H-79.6l-7.91-11.444h-.133V0h-3.844V-18.182h3.374l7.848,11.435h.16V-18.182ZM-64.014,0h-6.445V-18.182h6.5a9.669,9.669,0,0,1,4.723,1.088,7.421,7.421,0,0,1,3.05,3.121,10.321,10.321,0,0,1,1.07,4.865,10.4,10.4,0,0,1-1.07,4.883,7.416,7.416,0,0,1-3.063,3.134A9.773,9.773,0,0,1-64.014,0Zm-2.6-3.294h2.441A6.163,6.163,0,0,0-61.3-3.9a3.887,3.887,0,0,0,1.758-1.891,7.978,7.978,0,0,0,.59-3.316,7.9,7.9,0,0,0-.59-3.294A3.873,3.873,0,0,0-61.3-14.284a6.173,6.173,0,0,0-2.868-.6h-2.45ZM-49.627,0V-18.182h3.844V-3.169h7.795V0ZM-32.79,0V-18.182h12.251v3.169h-8.407v4.332h7.777v3.169h-7.777v4.341H-20.5V0Zm17.964,0V-18.182h7.173a7.78,7.78,0,0,1,3.52.732A5.172,5.172,0,0,1-1.9-15.381a6.189,6.189,0,0,1,.768,3.138,5.932,5.932,0,0,1-.781,3.112A5.062,5.062,0,0,1-4.177-7.138a8.374,8.374,0,0,1-3.573.692h-4.8V-9.535h4.181a4.8,4.8,0,0,0,1.829-.3,2.2,2.2,0,0,0,1.088-.906,2.888,2.888,0,0,0,.36-1.5,3.005,3.005,0,0,0-.36-1.527,2.281,2.281,0,0,0-1.092-.945,4.566,4.566,0,0,0-1.842-.324h-2.592V0Zm9.819-8.274L-.488,0H-4.732L-9.153-8.274Z" transform="translate(607 904)" fill="#636387"/></g></svg>